<?xml version="1.0" encoding="utf-8"?>
<svg version="1.1" width="505" height="505" viewBox="-252.5 -252.5 505 505" xmlns="http://www.w3.org/2000/svg" xmlns:xlink="http://www.w3.org/1999/xlink">
  <circle r="250" opacity=".05"/>
  <g id="scale" fill="none" stroke="#808080" stroke-linecap="round">
    <path id="deg10" d="m0-250v30 m0,440v30 m-250-250h30 m440,0h30"/>
    <path id="deg5" transform="rotate(5)" d="m0-250v20 m0,460v20 m-250-250h20 m460,0h20"/>
    <path id="deg1" transform="rotate(1)" d="m0-250v10 m0,480v10 m-250-250h10 m480,0h10"/>
    <use xlink:href="#deg1" transform="rotate(1)"/>
    <use xlink:href="#deg1" transform="rotate(2)"/>
    <use xlink:href="#deg1" transform="rotate(3)"/>
    <use xlink:href="#deg1" transform="rotate(5)"/>
    <use xlink:href="#deg1" transform="rotate(6)"/>
    <use xlink:href="#deg1" transform="rotate(7)"/>
    <use xlink:href="#deg1" transform="rotate(8)"/>
  </g>
  <use xlink:href="#scale" transform="rotate(10)"/>
  <use xlink:href="#scale" transform="rotate(20)"/>
  <use xlink:href="#scale" transform="rotate(30)"/>
  <use xlink:href="#scale" transform="rotate(40)"/>
  <use xlink:href="#scale" transform="rotate(50)"/>
  <use xlink:href="#scale" transform="rotate(60)"/>
  <use xlink:href="#scale" transform="rotate(70)"/>
  <use xlink:href="#scale" transform="rotate(80)"/>
  <g fill="none" stroke="#808080">
    <path d="m-250,0h500 m-250-250v500" stroke="#008000"/>
    <path d="m-250,0h500 m-250-250v500" stroke="#f00" transform="rotate(45)"/>
    <circle r="200"/>
    <circle r="150"/>
    <circle r="100"/>
    <circle r="50"/>
    <circle r="250" stroke="#000"/>
  </g>
  <g font-family="DejaVu Sans" font-size="12" font-weight="bold" text-anchor="middle">
    <g id="set1">
      <text y="-206">0</text>
      <text y="-206" transform="rotate(10)">10</text>
      <text y="-206" transform="rotate(20)">20</text>
      <text y="-206" transform="rotate(30)">30</text>
      <text y="-206" transform="rotate(40)">40</text>
      <text y="-206" transform="rotate(50)">50</text>
      <text y="-206" transform="rotate(60)">60</text>
      <text y="-206" transform="rotate(70)">70</text>
      <text y="-206" transform="rotate(80)">80</text>
      <text y="-206" transform="rotate(90)">90</text>
    </g>
    <g id="set2">
      <text y="-206" transform="rotate(100)">80</text>
      <text y="-206" transform="rotate(110)">70</text>
      <text y="-206" transform="rotate(120)">60</text>
      <text y="-206" transform="rotate(130)">50</text>
      <text y="-206" transform="rotate(140)">40</text>
      <text y="-206" transform="rotate(150)">30</text>
      <text y="-206" transform="rotate(160)">20</text>
      <text y="-206" transform="rotate(170)">10</text>
    </g>
    <use xlink:href="#set1" transform="rotate(180)"/>
    <use xlink:href="#set2" transform="rotate(180)"/>
  </g>
</svg>
